<svg xmlns="http://www.w3.org/2000/svg" width="310" height="175" viewBox="0 0 310 175" fill="none">
<rect width="310" height="175" rx="6" fill="url(#paint0_linear)"/>
<mask id="mask0" mask-type="alpha" maskUnits="userSpaceOnUse" x="0" y="0" width="310" height="175">
<rect width="310" height="175" rx="6" fill="url(#paint1_linear)"/>
</mask>
<g mask="url(#mask0)">
<path d="M146.068 122.198C56.9808 70.4811 2.62704 100.742 -18.9153 129.741V196.121H329.966V137.284C302.119 158.74 210.169 159.411 146.068 122.198Z" fill="url(#paint2_linear)"/>
</g>
<path d="M44.0203 30.2408L41.4792 44.2633H45.5432L48.0864 30.2408H44.0203Z" fill="white"/>
<path d="M38.0716 30.2565L34.0911 39.8195L33.6668 38.3756C32.8818 36.6358 30.6532 34.1372 28.0369 32.5625L31.6765 44.2565L35.9768 44.2496L42.3771 30.2536L38.0716 30.2565Z" fill="white"/>
<path d="M32.1239 31.2601C31.8877 30.4059 31.203 30.1514 30.3532 30.1209H24.0523L24 30.4C28.9034 31.5186 32.148 34.2138 33.4943 37.4546L32.1239 31.2601Z" fill="white"/>
<path d="M56.3232 32.9291C57.6528 32.9095 58.6166 33.1827 59.365 33.4658L59.7319 33.628L60.2817 30.5888C59.4768 30.3047 58.2152 30 56.641 30C52.625 30 49.7944 31.902 49.7725 34.6276C49.7463 36.6417 51.7888 37.7662 53.3316 38.4375C54.9152 39.1255 55.4462 39.563 55.4389 40.1773C55.4264 41.116 54.1762 41.5465 53.0086 41.5465C51.3811 41.5465 50.5167 41.3352 49.1819 40.8123L48.6582 40.5882L48.0864 43.7267C49.0376 44.1188 50.7927 44.456 52.6146 44.4737C56.8866 44.4737 59.6629 42.5943 59.6922 39.6819C59.7099 38.0886 58.626 36.8727 56.2772 35.875C54.8557 35.2243 53.986 34.7918 53.9943 34.1352C53.9943 33.5523 54.7323 32.9291 56.3232 32.9291Z" fill="white"/>
<path d="M70.7115 30.2565H67.5715C66.5963 30.2565 65.8708 30.5062 65.4423 31.4203L59.4079 44.2712H63.6758C63.6758 44.2712 64.3719 42.5432 64.5297 42.1648C64.997 42.1648 69.1436 42.1707 69.7342 42.1707C69.8555 42.6602 70.2297 44.2712 70.2297 44.2712H74L70.7115 30.2565ZM65.6994 39.2946C66.0339 38.4896 67.3186 35.3757 67.3186 35.3757C67.2966 35.414 67.6499 34.5647 67.86 34.0369L68.1339 35.2459C68.1339 35.2459 68.9126 38.5938 69.0757 39.2946H65.6994Z" fill="white"/>
<path opacity="0.8" d="M240.37 122.047L243.624 130.168L246.878 122.047H248.58V132H247.268V128.124L247.391 123.94L244.123 132H243.118L239.857 123.961L239.987 128.124V132H238.675V122.047H240.37ZM252.593 122.047L255.847 130.168L259.101 122.047H260.803V132H259.49V128.124L259.613 123.94L256.346 132H255.341L252.08 123.961L252.21 128.124V132H250.897V122.047H252.593ZM263.175 132.854H262.088L266.244 122.047H267.324L263.175 132.854ZM274.386 129.402H270.216L269.279 132H267.926L271.727 122.047H272.875L276.683 132H275.336L274.386 129.402ZM270.612 128.322H273.996L272.301 123.667L270.612 128.322ZM283.519 129.402H279.349L278.412 132H277.059L280.859 122.047H282.008L285.815 132H284.469L283.519 129.402ZM279.745 128.322H283.129L281.434 123.667L279.745 128.322Z" fill="white"/>
<defs>
<linearGradient id="paint0_linear" x1="0" y1="0" x2="300.99" y2="189.325" gradientUnits="userSpaceOnUse">
<stop stop-color="#2A7BCC"/>
<stop offset="1" stop-color="#095199"/>
</linearGradient>
<linearGradient id="paint1_linear" x1="0" y1="0" x2="300.99" y2="189.325" gradientUnits="userSpaceOnUse">
<stop stop-color="#DDDAF4"/>
<stop offset="1" stop-color="#DFD9EA"/>
</linearGradient>
<linearGradient id="paint2_linear" x1="-47.2882" y1="70.4024" x2="181.215" y2="339.426" gradientUnits="userSpaceOnUse">
<stop offset="0.153827" stop-color="#2A7BCC"/>
<stop offset="0.824167" stop-color="#0C4680"/>
</linearGradient>
</defs>
</svg>