<svg xmlns="http://www.w3.org/2000/svg" width="310" height="175" viewBox="0 0 310 175" fill="none">
<rect width="310" height="175" rx="6" transform="matrix(-1 0 0 1 310 0)" fill="url(#paint0_linear)"/>
<mask id="mask0" mask-type="alpha" maskUnits="userSpaceOnUse" x="0" y="0" width="310" height="175">
<rect width="310" height="175" rx="6" transform="matrix(-1 0 0 1 310 0)" fill="url(#paint1_linear)"/>
</mask>
<g mask="url(#mask0)">
<path d="M163.932 122.198C253.019 70.4811 307.373 100.742 328.915 129.741V196.121H-19.9661V137.284C7.88138 158.74 99.8306 159.411 163.932 122.198Z" fill="url(#paint2_linear)"/>
</g>
<rect y="30.1724" width="310" height="30.1724" fill="url(#paint3_linear)"/>
<rect opacity="0.5" x="24.5544" y="72.4138" width="260.891" height="24.1379" fill="white"/>
<rect x="216.375" y="65.8735" width="68.571" height="37.2184" rx="1.5" stroke="white"/>
<defs>
<linearGradient id="paint0_linear" x1="0" y1="0" x2="300.99" y2="189.325" gradientUnits="userSpaceOnUse">
<stop stop-color="#2A7BCC"/>
<stop offset="1" stop-color="#095199"/>
</linearGradient>
<linearGradient id="paint1_linear" x1="0" y1="0" x2="300.99" y2="189.325" gradientUnits="userSpaceOnUse">
<stop stop-color="#DDDAF4"/>
<stop offset="1" stop-color="#DFD9EA"/>
</linearGradient>
<linearGradient id="paint2_linear" x1="357.288" y1="70.4024" x2="128.785" y2="339.426" gradientUnits="userSpaceOnUse">
<stop offset="0.153827" stop-color="#2A7BCC"/>
<stop offset="0.824167" stop-color="#0C4680"/>
</linearGradient>
<linearGradient id="paint3_linear" x1="0" y1="30.1724" x2="309.895" y2="61.3845" gradientUnits="userSpaceOnUse">
<stop stop-color="#111111"/>
<stop offset="1" stop-color="#323232"/>
</linearGradient>
</defs>
</svg>