<svg xmlns="http://www.w3.org/2000/svg" width="100" height="100" viewBox="0 0 100 100" fill="none">
<g clip-path="url(#clip0)">
<path d="M94.9259 76.6523V28.8452C94.9259 23.499 90.6117 19.1685 85.2856 19.1685H9.64027C4.31419 19.1685 0 23.499 0 28.8452V76.6591C0 82.0054 4.31419 86.3359 9.64027 86.3359H85.2925C90.6117 86.329 94.9259 81.9985 94.9259 76.6523Z" fill="#F0F0F0"/>
<path d="M94.9259 75.2885V27.4746C94.9259 22.1284 90.6117 17.7979 85.2856 17.7979H9.64027C4.31419 17.8047 0 22.1352 0 27.4746V75.2885C0 80.6348 4.31419 84.9653 9.64027 84.9653H85.2925C90.6117 84.9653 94.9259 80.6348 94.9259 75.2885Z" fill="white"/>
<path d="M52.5371 61.3398H11.8146C11.2546 61.3398 10.8038 60.8875 10.8038 60.3255V59.9211C10.8038 59.3591 11.2546 58.9067 11.8146 58.9067H52.5371C53.0971 58.9067 53.5478 59.3591 53.5478 59.9211V60.3255C53.5478 60.8875 53.0903 61.3398 52.5371 61.3398Z" fill="#555555"/>
<path d="M25.0632 70.5996H11.8146C11.2546 70.5996 10.8038 70.1473 10.8038 69.5852V69.1809C10.8038 68.6189 11.2546 68.1665 11.8146 68.1665H25.0632C25.6232 68.1665 26.0739 68.6189 26.0739 69.1809V69.5852C26.0808 70.1404 25.6232 70.5996 25.0632 70.5996Z" fill="#00B0EA"/>
<path d="M94.9259 30.8198H0V45.8982H94.9259V30.8198Z" fill="#555555"/>
<path opacity="0.2" fill-rule="evenodd" clip-rule="evenodd" d="M74.7797 84.965H89.9259C92.6873 84.965 94.9259 82.7265 94.9259 79.965V24.9941C94.9259 24.9941 57.4024 61.5362 52.5848 61.3194L74.7797 84.965Z" fill="url(#paint0_linear)"/>
<path d="M59.94 60.2913L52.8717 61.3331C52.2913 61.4154 51.7996 60.915 51.8883 60.3325L53.022 53.3416L91.6548 14.4393C93.567 12.5202 96.6606 12.5202 98.5728 14.4393C100.485 16.3584 100.485 19.4631 98.5728 21.3822L59.94 60.2913Z" fill="#00B0EA"/>
</g>
<defs>
<linearGradient id="paint0_linear" x1="50.017" y1="57.9768" x2="80.8264" y2="86.5627" gradientUnits="userSpaceOnUse">
<stop/>
<stop offset="1" stop-opacity="0.01"/>
</linearGradient>
<clipPath id="clip0">
<rect width="100" height="100" fill="white"/>
</clipPath>
</defs>
</svg>